<?xml version="1.0" encoding="UTF-8" standalone="no"?>
<svg
   xmlns:dc="http://purl.org/dc/elements/1.1/"
   xmlns:cc="http://creativecommons.org/ns#"
   xmlns:rdf="http://www.w3.org/1999/02/22-rdf-syntax-ns#"
   xmlns:svg="http://www.w3.org/2000/svg"
   xmlns="http://www.w3.org/2000/svg"
   xmlns:sodipodi="http://sodipodi.sourceforge.net/DTD/sodipodi-0.dtd"
   xmlns:inkscape="http://www.inkscape.org/namespaces/inkscape"
   inkscape:version="1.0 (4035a4fb49, 2020-05-01)"
   sodipodi:docname="taxi-solid.svg"
   id="svg4"
   version="1.1"
   viewBox="0 0 512 512"
   role="img"
   class="svg-inline--fa fa-taxi fa-w-16"
   data-icon="taxi"
   data-prefix="fas"
   focusable="false"
   aria-hidden="true">
  <metadata
     id="metadata10">
    <rdf:RDF>
      <cc:Work
         rdf:about="">
        <dc:format>image/svg+xml</dc:format>
        <dc:type
           rdf:resource="http://purl.org/dc/dcmitype/StillImage" />
      </cc:Work>
    </rdf:RDF>
  </metadata>
  <defs
     id="defs8" />
  <sodipodi:namedview
     inkscape:current-layer="svg4"
     inkscape:window-maximized="1"
     inkscape:window-y="-8"
     inkscape:window-x="-8"
     inkscape:cy="271.15153"
     inkscape:cx="234.51048"
     inkscape:zoom="1.0507812"
     showgrid="false"
     id="namedview6"
     inkscape:window-height="705"
     inkscape:window-width="1366"
     inkscape:pageshadow="2"
     inkscape:pageopacity="0"
     guidetolerance="10"
     gridtolerance="10"
     objecttolerance="10"
     borderopacity="1"
     bordercolor="#666666"
     pagecolor="#ffffff" />
  <path
     id="path2"
     d="M462 241.64l-22-84.84c-9.6-35.2-41.6-60.8-76.8-60.8H352V64c0-17.67-14.33-32-32-32H192c-17.67 0-32 14.33-32 32v32h-11.2c-35.2 0-67.2 25.6-76.8 60.8l-22 84.84C21.41 248.04 0 273.47 0 304v48c0 23.63 12.95 44.04 32 55.12V448c0 17.67 14.33 32 32 32h32c17.67 0 32-14.33 32-32v-32h256v32c0 17.67 14.33 32 32 32h32c17.67 0 32-14.33 32-32v-40.88c19.05-11.09 32-31.5 32-55.12v-48c0-30.53-21.41-55.96-50-62.36zM96 352c-17.67 0-32-14.33-32-32s14.33-32 32-32 32 14.33 32 32-14.33 32-32 32zm20.55-112l17.2-66.36c2.23-8.16 9.59-13.64 15.06-13.64h214.4c5.47 0 12.83 5.48 14.85 12.86L395.45 240h-278.9zM416 352c-17.67 0-32-14.33-32-32s14.33-32 32-32 32 14.33 32 32-14.33 32-32 32z"
     fill="currentColor" />
  <path
     id="path1408"
     d="m 55.246976,478.10425 c -9.453124,-2.97816 -17.154133,-10.17857 -20.530238,-19.19571 -1.690806,-4.51592 -1.884198,-7.44392 -1.885726,-28.55019 l -0.0017,-23.5182 -4.185656,-2.64428 C 21.29764,399.55505 11.532064,388.33533 7.2138011,379.57501 1.100711,367.17358 0.5113226,362.69711 0.4923609,328.52493 0.47333144,294.23067 1.1751956,288.8238 7.3014438,276.07062 c 3.1099872,-6.47416 5.4168502,-9.57491 12.0709122,-16.22501 8.630209,-8.62508 15.933163,-13.22996 25.805195,-16.27147 l 5.261111,-1.62092 11.685579,-45.08069 c 10.423088,-40.21026 12.196736,-46.10888 16.416823,-54.59744 8.584423,-17.26727 20.845473,-29.54078 37.563026,-37.60123 11.74286,-5.661878 19.13216,-7.499814 33.17903,-8.252604 l 10.91124,-0.584749 0.31917,-19.605986 c 0.30745,-18.885184 0.41183,-19.803595 2.83918,-24.980998 3.20912,-6.844901 9.05191,-12.687687 15.89682,-15.896816 l 5.37501,-2.519993 H 256 327.37546 l 5.37501,2.519993 c 6.84491,3.209129 12.6877,9.051915 15.89682,15.896816 2.42735,5.177403 2.53173,6.095814 2.83918,24.980998 l 0.31917,19.605986 10.91124,0.584749 c 14.04687,0.75279 21.43617,2.590726 33.17903,8.252604 16.71771,8.06052 28.97893,20.33429 37.56281,37.60123 4.21867,8.48607 5.99689,14.39832 16.41945,54.59135 l 11.68843,45.07461 5.25848,1.627 c 9.88784,3.05935 17.17864,7.65875 25.80256,16.27756 6.65407,6.6501 8.96093,9.75085 12.07092,16.22501 6.12625,12.75318 6.82811,18.16005 6.80908,52.45431 -0.0189,34.17218 -0.60835,38.64865 -6.72144,51.05008 -4.31827,8.76032 -14.08384,19.98004 -21.42986,24.62086 l -4.18565,2.64428 -0.002,23.5182 c -0.002,21.39074 -0.17851,23.99076 -1.9562,28.74208 -2.73068,7.2984 -8.95806,13.9002 -16.31717,17.29823 l -5.99579,2.76863 -23.31599,-0.004 c -26.54048,-0.004 -28.1555,-0.36688 -36.69573,-8.239 -8.72516,-8.04256 -10.86915,-15.93514 -10.88072,-40.05464 L 384,415.88104 H 256 128 l -0.008,14.98885 c -0.0116,24.1195 -2.15557,32.01208 -10.88073,40.05464 -8.28168,7.6338 -10.36063,8.12975 -35.268222,8.41362 -17.696683,0.20169 -22.79017,-0.0346 -26.596891,-1.2339 z M 110.39405,349.0515 c 6.50155,-3.35161 11.62168,-8.68344 14.87516,-15.49016 2.27475,-4.75908 2.72941,-6.93242 2.73004,-13.04981 9.5e-4,-13.56801 -6.01515,-23.67712 -17.41738,-29.26506 -16.952336,-8.3079 -36.292558,-1.54649 -44.023019,15.39063 -3.536027,7.74729 -3.809655,18.63374 -0.646434,25.71879 4.01308,8.98858 11.137716,15.68824 19.639453,18.46799 6.418138,2.09848 19.08667,1.19464 24.84218,-1.77238 z m 319.7509,0.21786 c 6.33759,-3.06798 12.47249,-9.40141 15.49542,-15.99685 2.00851,-4.38222 2.4894,-6.88033 2.50915,-13.03459 0.0324,-10.12231 -3.20392,-17.54354 -10.59766,-24.301 -16.47215,-15.05462 -43.88895,-8.5501 -51.69784,12.26511 -2.70975,7.22305 -2.31449,19.45943 0.83719,25.91703 3.67707,7.53412 11.74551,14.40732 20.14894,17.16414 1.30855,0.42928 6.02547,0.66588 10.48204,0.52576 6.2418,-0.19623 9.18692,-0.77952 12.82276,-2.5396 z M 395.42007,239.23033 c 0,-3.62517 -17.48283,-68.68893 -19.22027,-71.52976 -1.05107,-1.7186 -3.46558,-4.18106 -5.36556,-5.47212 l -3.45451,-2.34741 h -111.2504 c -109.57154,0 -111.29684,0.0287 -114.32859,1.90243 -6.0421,3.73422 -7.45196,7.35995 -16.58105,42.64149 -4.75187,18.36475 -8.63976,34.05596 -8.63976,34.86937 0,1.3307 13.9719,1.4789 139.42007,1.4789 127.9287,0 139.42007,-0.12717 139.42007,-1.5429 z"
     style="fill:#2d307f;stroke-width:0;fill-opacity:1" />
</svg>
